<mxfile host="app.diagrams.net" modified="2021-12-03T13:46:03.388Z" agent="5.0 (Windows NT 10.0; Win64; x64) AppleWebKit/537.36 (KHTML, like Gecko) Chrome/96.0.4664.45 Safari/537.36" etag="nXMeF-WqF4ZDrzoNUFfA" version="15.8.6" type="github">
  <diagram id="TrALUGcJcbnn1xJpBmR4" name="Page-1">
    <mxGraphModel dx="792" dy="486" grid="1" gridSize="10" guides="1" tooltips="1" connect="1" arrows="1" fold="1" page="1" pageScale="1" pageWidth="850" pageHeight="1100" math="0" shadow="0">
      <root>
        <mxCell id="0" />
        <mxCell id="1" parent="0" />
        <mxCell id="b2WUHyonEJMLoh59kTHS-1" value="Customer" style="whiteSpace=wrap;html=1;align=center;" vertex="1" parent="1">
          <mxGeometry x="40" y="160" width="100" height="40" as="geometry" />
        </mxCell>
        <mxCell id="b2WUHyonEJMLoh59kTHS-2" value="Library Card" style="whiteSpace=wrap;html=1;align=center;" vertex="1" parent="1">
          <mxGeometry x="370" y="40" width="100" height="40" as="geometry" />
        </mxCell>
        <mxCell id="b2WUHyonEJMLoh59kTHS-3" value="Books" style="whiteSpace=wrap;html=1;align=center;" vertex="1" parent="1">
          <mxGeometry x="330" y="240" width="100" height="40" as="geometry" />
        </mxCell>
        <mxCell id="b2WUHyonEJMLoh59kTHS-4" value="Branch" style="whiteSpace=wrap;html=1;align=center;" vertex="1" parent="1">
          <mxGeometry x="480" y="430" width="100" height="40" as="geometry" />
        </mxCell>
        <mxCell id="b2WUHyonEJMLoh59kTHS-5" value="Employee" style="whiteSpace=wrap;html=1;align=center;" vertex="1" parent="1">
          <mxGeometry x="610" y="190" width="100" height="40" as="geometry" />
        </mxCell>
        <mxCell id="b2WUHyonEJMLoh59kTHS-6" value="get" style="shape=rhombus;perimeter=rhombusPerimeter;whiteSpace=wrap;html=1;align=center;" vertex="1" parent="1">
          <mxGeometry x="150" y="240" width="80" height="60" as="geometry" />
        </mxCell>
        <mxCell id="b2WUHyonEJMLoh59kTHS-7" value="has" style="shape=rhombus;perimeter=rhombusPerimeter;whiteSpace=wrap;html=1;align=center;" vertex="1" parent="1">
          <mxGeometry x="250" y="70" width="80" height="60" as="geometry" />
        </mxCell>
        <mxCell id="b2WUHyonEJMLoh59kTHS-8" value="have" style="shape=rhombus;perimeter=rhombusPerimeter;whiteSpace=wrap;html=1;align=center;" vertex="1" parent="1">
          <mxGeometry x="610" y="290" width="80" height="60" as="geometry" />
        </mxCell>
        <mxCell id="b2WUHyonEJMLoh59kTHS-9" value="store" style="shape=rhombus;perimeter=rhombusPerimeter;whiteSpace=wrap;html=1;align=center;" vertex="1" parent="1">
          <mxGeometry x="425" y="330" width="80" height="60" as="geometry" />
        </mxCell>
        <mxCell id="b2WUHyonEJMLoh59kTHS-10" value="" style="endArrow=none;html=1;rounded=0;exitX=0;exitY=0.5;exitDx=0;exitDy=0;" edge="1" parent="1" source="b2WUHyonEJMLoh59kTHS-6">
          <mxGeometry relative="1" as="geometry">
            <mxPoint x="330" y="250" as="sourcePoint" />
            <mxPoint x="120" y="200" as="targetPoint" />
          </mxGeometry>
        </mxCell>
        <mxCell id="b2WUHyonEJMLoh59kTHS-11" value="1" style="resizable=0;html=1;align=right;verticalAlign=bottom;" connectable="0" vertex="1" parent="b2WUHyonEJMLoh59kTHS-10">
          <mxGeometry x="1" relative="1" as="geometry" />
        </mxCell>
        <mxCell id="b2WUHyonEJMLoh59kTHS-12" value="" style="endArrow=none;html=1;rounded=0;exitX=1;exitY=0.5;exitDx=0;exitDy=0;entryX=0;entryY=0.5;entryDx=0;entryDy=0;" edge="1" parent="1" source="b2WUHyonEJMLoh59kTHS-6" target="b2WUHyonEJMLoh59kTHS-3">
          <mxGeometry relative="1" as="geometry">
            <mxPoint x="330" y="250" as="sourcePoint" />
            <mxPoint x="490" y="250" as="targetPoint" />
          </mxGeometry>
        </mxCell>
        <mxCell id="b2WUHyonEJMLoh59kTHS-13" value="N" style="resizable=0;html=1;align=right;verticalAlign=bottom;" connectable="0" vertex="1" parent="b2WUHyonEJMLoh59kTHS-12">
          <mxGeometry x="1" relative="1" as="geometry" />
        </mxCell>
        <mxCell id="b2WUHyonEJMLoh59kTHS-15" value="" style="endArrow=none;html=1;rounded=0;exitX=1;exitY=0.5;exitDx=0;exitDy=0;entryX=0.25;entryY=1;entryDx=0;entryDy=0;" edge="1" parent="1" source="b2WUHyonEJMLoh59kTHS-7" target="b2WUHyonEJMLoh59kTHS-2">
          <mxGeometry relative="1" as="geometry">
            <mxPoint x="160" y="280" as="sourcePoint" />
            <mxPoint x="130" y="210" as="targetPoint" />
          </mxGeometry>
        </mxCell>
        <mxCell id="b2WUHyonEJMLoh59kTHS-16" value="1" style="resizable=0;html=1;align=right;verticalAlign=bottom;" connectable="0" vertex="1" parent="b2WUHyonEJMLoh59kTHS-15">
          <mxGeometry x="1" relative="1" as="geometry" />
        </mxCell>
        <mxCell id="b2WUHyonEJMLoh59kTHS-17" value="" style="endArrow=none;html=1;rounded=0;exitX=0;exitY=0.5;exitDx=0;exitDy=0;entryX=1;entryY=0;entryDx=0;entryDy=0;" edge="1" parent="1" source="b2WUHyonEJMLoh59kTHS-7" target="b2WUHyonEJMLoh59kTHS-1">
          <mxGeometry relative="1" as="geometry">
            <mxPoint x="340" y="110" as="sourcePoint" />
            <mxPoint x="405" y="90" as="targetPoint" />
          </mxGeometry>
        </mxCell>
        <mxCell id="b2WUHyonEJMLoh59kTHS-18" value="1" style="resizable=0;html=1;align=right;verticalAlign=bottom;" connectable="0" vertex="1" parent="b2WUHyonEJMLoh59kTHS-17">
          <mxGeometry x="1" relative="1" as="geometry" />
        </mxCell>
      </root>
    </mxGraphModel>
  </diagram>
</mxfile>
